<?xml version="1.0" encoding="utf-8"?>
<!-- Generator: Adobe Illustrator 16.0.0, SVG Export Plug-In . SVG Version: 6.00 Build 0)  -->
<!DOCTYPE svg PUBLIC "-//W3C//DTD SVG 1.1//EN" "http://www.w3.org/Graphics/SVG/1.1/DTD/svg11.dtd">
<svg version="1.1" id="Layer_1" xmlns="http://www.w3.org/2000/svg" xmlns:xlink="http://www.w3.org/1999/xlink" x="0px" y="0px"
	 width="258.5px" height="132.5px" viewBox="0 0 258.5 132.5" enable-background="new 0 0 258.5 132.5" xml:space="preserve">
<path fill="#FFFFFF" d="M30.69,28.824c4.559-0.6,8.994,0.128,12.942,1.885c6.417-7.941,15.767-13.535,26.689-14.973
	c17.711-2.33,34.272,6.947,42.03,21.95c3.361-3.835,7.431-7.064,12.051-9.453c5.699-12.523,17.527-21.919,32.175-23.846
	c20.688-2.722,39.801,10.394,45.151,29.975c0.753,0.398,1.495,0.816,2.222,1.259c3.742-6.243,10.086-10.75,17.725-11.754
	c13.515-1.778,25.956,8.075,27.79,22.007c1.094,8.321-1.845,16.214-7.268,21.603c1.901,2.259,3.206,5.026,3.614,8.128
	c1.183,8.99-5.485,17.282-14.893,18.519c-4.63,0.609-9.055-0.61-12.501-3.07c-5.5,9.758-14.896,17.178-26.386,19.902
	c-6.409,9.04-16.414,15.49-28.267,17.051c-11.77,1.548-23.027-2.035-31.535-9.011c-0.624,0.11-1.252,0.212-1.888,0.296
	c-12.417,1.634-24.261-2.444-32.911-10.193c-3.454,7.492-10.41,13.064-19.011,14.196c-13.514,1.778-25.956-8.076-27.789-22.009
	c-0.513-3.896-0.139-7.7,0.957-11.196c-4.286-3.091-7.975-6.994-10.822-11.525c-1.113,0.316-2.259,0.559-3.438,0.714
	C23.815,81.057,11.374,71.204,9.54,57.271C7.707,43.339,17.176,30.602,30.69,28.824z"/>
</svg>
