<?xml version="1.0" encoding="utf-8"?>
<!-- Generator: Adobe Illustrator 16.0.0, SVG Export Plug-In . SVG Version: 6.00 Build 0)  -->
<!DOCTYPE svg PUBLIC "-//W3C//DTD SVG 1.1//EN" "http://www.w3.org/Graphics/SVG/1.1/DTD/svg11.dtd">
<svg version="1.1" id="Layer_1" xmlns="http://www.w3.org/2000/svg" xmlns:xlink="http://www.w3.org/1999/xlink" x="0px" y="0px"
	 width="520.313px" height="457.031px" viewBox="0 0 520.313 457.031" enable-background="new 0 0 520.313 457.031"
	 xml:space="preserve">
<g>
	<line fill="#FFFFFF" stroke="#754C24" stroke-miterlimit="10" x1="236.841" y1="63.874" x2="342.571" y2="318.608"/>
	<line fill="none" stroke="#754C24" stroke-miterlimit="10" x1="238.368" y1="63.781" x2="368.451" y2="315.794"/>
	<line fill="#FFFFFF" stroke="#754C24" stroke-miterlimit="10" x1="239.895" y1="63.687" x2="395.933" y2="314.105"/>
	<polyline fill="none" stroke="#754C24" stroke-miterlimit="10" points="313.912,250.413 354.177,247.94 319.965,264.913 
		362.722,262.286 327.887,283.264 374.709,280.387 	"/>
</g>
<g>
	<line fill="#FFFFFF" stroke="#754C24" stroke-miterlimit="10" x1="239.933" y1="63.874" x2="213.62" y2="313.73"/>
	<line fill="none" stroke="#754C24" stroke-miterlimit="10" x1="239.4" y1="63.72" x2="204.56" y2="309.883"/>
	<line fill="#FFFFFF" stroke="#754C24" stroke-miterlimit="10" x1="238.869" y1="63.564" x2="194.992" y2="307.094"/>
	<polyline fill="none" stroke="#754C24" stroke-miterlimit="10" points="220.786,246.854 206.768,242.771 219.276,261.076 
		204.39,256.737 217.275,279.063 200.974,274.311 	"/>
</g>
<line fill="#666666" stroke="#8C6239" stroke-miterlimit="10" x1="233.514" y1="86.079" x2="49.265" y2="174.205"/>
<line fill="#666666" stroke="#8C6239" stroke-miterlimit="10" x1="243.063" y1="143.208" x2="63.265" y2="229.205"/>
<g>
	<path fill="#FBB03B" stroke="#8C6239" stroke-width="4" stroke-miterlimit="10" d="M259.208,331.678
		c0.068,1.275-3.424,2.498-8.681,2.781L250,334.487c-5.256,0.283-9.696-0.513-9.765-1.786l-2.632-48.859
		c-0.069-1.273,4.288-2.013,9.546-2.296l0.526-0.028c5.257-0.283,8.831,0.028,8.899,1.303L259.208,331.678z"/>
	<path fill="#FBB03B" stroke="#8C6239" stroke-width="4" stroke-miterlimit="10" d="M250.284,277.554
		c0.365,6.786-0.613,12.351-3.242,12.493l-0.263,0.014c-2.63,0.142-5.117-5.236-5.482-12.022L227.279,17.802
		c-0.366-6.785,1.7-9.249,4.329-9.391l0.264-0.014c2.627-0.142,4.028,2.136,4.395,8.92L250.284,277.554z"/>
</g>
<g>
	<path fill="#FBB03B" stroke="#8C6239" stroke-width="3" stroke-miterlimit="10" d="M449.468,291.456
		c-0.012,0.769-2.477,1.355-6.116,1.304l-0.364-0.005c-3.64-0.051-6.667-0.718-6.655-1.484l0.416-29.461
		c0.01-0.768,3.05-1.027,6.69-0.977l0.363,0.003c3.641,0.051,6.092,0.391,6.081,1.159L449.468,291.456z"/>
	<path fill="#FBB03B" stroke="#8C6239" stroke-width="3" stroke-miterlimit="10" d="M445.783,258.566
		c-0.058,4.091-0.986,7.393-2.808,7.367l-0.182-0.002c-1.82-0.025-3.291-3.361-3.233-7.453l2.215-156.917
		c0.059-4.092,1.596-5.484,3.417-5.459l0.182,0.003c1.819,0.024,2.682,1.453,2.624,5.543L445.783,258.566z"/>
</g>
<path fill="#FFFFFF" stroke="#754C24" stroke-width="9" stroke-miterlimit="10" d="M108.852,370.195c0,0,7.726,15.673,17.756,27.66
	c9.343,11.166,28.619,24.674,28.619,24.674s-56.281-10.281-76.906-35.964c-20.626-25.684-13.953-32.689-4.854-35.023
	s12.497,2.911,12.497,2.911S69.741,372.42,108.852,370.195z"/>
<path fill="#8C6239" stroke="#FBB03B" stroke-width="3" stroke-miterlimit="10" d="M108.852,371.195c0,0,7.726,15.673,17.756,27.66
	c9.343,11.166,28.619,24.674,28.619,24.674s-56.281-10.281-76.906-35.964c-20.626-25.684-13.953-32.689-4.854-35.023
	s12.497,2.911,12.497,2.911S69.741,373.42,108.852,371.195z"/>
<g>
	<path fill="#C47A43" d="M78.785,261.919c-1.057-0.305-1.663,0.308-1.347,1.361c0,0,18.3,61.055,28.544,97.571
		c8.841,31.515,35.185,61.877,77.649,71.583c67.556,15.44,253.299,35.309,290.577-50.351c15.694-36.063,16.38-62.483,26.691-111.014
		l-133.889,8.367c-1.098,0.068-1.831,1.01-1.63,2.091c0,0,4.1,22.045-22.164,33.349c-15.047,6.477-106.809,25.349-107.416,0.646
		C235.597,307.189,78.785,261.919,78.785,261.919z"/>
	<path fill="none" stroke="#754C24" stroke-width="10" stroke-miterlimit="10" d="M78.785,261.919
		c-1.057-0.305-1.663,0.308-1.347,1.361c0,0,18.3,61.055,28.544,97.571c8.841,31.515,35.185,61.877,77.649,71.583
		c67.556,15.44,253.299,35.309,290.577-50.351c15.694-36.063,16.38-62.483,26.691-111.014l-133.889,8.367
		c-1.098,0.068-1.831,1.01-1.63,2.091c0,0,4.1,22.045-22.164,33.349c-15.047,6.477-106.809,25.349-107.416,0.646
		C235.597,307.189,78.785,261.919,78.785,261.919z"/>
</g>
<path fill="#FFFFFF" stroke="#000000" stroke-miterlimit="10" d="M198.989,307.914"/>
<path fill="#FFFFFF" stroke="#000000" stroke-miterlimit="10" d="M256.988,316.252"/>
<g>
	<polygon fill="none" stroke="#8C6239" stroke-width="9" stroke-miterlimit="10" points="367.569,256.885 367.58,256.874 
		502.328,246.807 502.563,246.815 502.563,266.45 502.328,266.461 366.052,275.194 365.986,275.186 	"/>
</g>
<line fill="none" stroke="#8C6239" stroke-width="9" stroke-miterlimit="10" x1="389.384" y1="254.581" x2="388.182" y2="273.101"/>
<line fill="none" stroke="#8C6239" stroke-width="9" stroke-miterlimit="10" x1="409.767" y1="253.125" x2="408.564" y2="271.645"/>
<line fill="none" stroke="#8C6239" stroke-width="9" stroke-miterlimit="10" x1="429.421" y1="251.669" x2="428.219" y2="270.189"/>
<line fill="none" stroke="#8C6239" stroke-width="9" stroke-miterlimit="10" x1="449.076" y1="250.213" x2="447.874" y2="268.733"/>
<line fill="none" stroke="#8C6239" stroke-width="9" stroke-miterlimit="10" x1="468.73" y1="248.757" x2="467.528" y2="267.925"/>
<line fill="none" stroke="#8C6239" stroke-width="9" stroke-miterlimit="10" x1="486.93" y1="247.301" x2="485.728" y2="267.277"/>
<line fill="none" stroke="#FBB03B" stroke-width="2" stroke-miterlimit="10" x1="389.384" y1="255.309" x2="388.182" y2="273.829"/>
<line fill="none" stroke="#FBB03B" stroke-width="2" stroke-miterlimit="10" x1="409.767" y1="253.853" x2="408.564" y2="272.373"/>
<line fill="none" stroke="#FBB03B" stroke-width="2" stroke-miterlimit="10" x1="429.421" y1="252.396" x2="428.219" y2="270.917"/>
<line fill="none" stroke="#FBB03B" stroke-width="2" stroke-miterlimit="10" x1="449.076" y1="250.941" x2="447.874" y2="269.461"/>
<line fill="none" stroke="#FBB03B" stroke-width="2" stroke-miterlimit="10" x1="468.73" y1="249.484" x2="467.528" y2="268.652"/>
<line fill="none" stroke="#FBB03B" stroke-width="2" stroke-miterlimit="10" x1="486.93" y1="248.029" x2="485.728" y2="268.005"/>
<g>
	<polygon fill="none" stroke="#FBB03B" stroke-width="3" stroke-miterlimit="10" points="367.569,256.885 367.58,256.874 
		502.328,246.807 502.563,246.815 502.563,266.45 502.328,266.461 366.052,275.194 365.986,275.186 	"/>
</g>
<g>
	<g>
		<path fill="none" stroke="#8C6239" stroke-width="9" stroke-miterlimit="10" d="M80.327,253.548
			c-0.001,0.005,0.003,0.011,0.008,0.013l128.882,39.84c0.006,0.002,0.011-0.001,0.012-0.007l4.382-19.139
			c0.001-0.006-0.002-0.011-0.008-0.013L82.826,235.337c-0.005-0.002-0.01,0.002-0.011,0.007L80.327,253.548z"/>
	</g>
	
		<line fill="none" stroke="#8C6239" stroke-width="9" stroke-miterlimit="10" x1="101.077" y1="260.664" x2="104.038" y2="242.342"/>
	<line fill="none" stroke="#8C6239" stroke-width="9" stroke-miterlimit="10" x1="120.62" y1="266.632" x2="123.582" y2="248.312"/>
	
		<line fill="none" stroke="#8C6239" stroke-width="9" stroke-miterlimit="10" x1="139.455" y1="272.438" x2="142.417" y2="254.116"/>
	<line fill="none" stroke="#8C6239" stroke-width="9" stroke-miterlimit="10" x1="158.289" y1="278.244" x2="161.25" y2="259.923"/>
	
		<line fill="none" stroke="#8C6239" stroke-width="9" stroke-miterlimit="10" x1="177.123" y1="284.051" x2="180.229" y2="265.098"/>
	
		<line fill="none" stroke="#8C6239" stroke-width="9" stroke-miterlimit="10" x1="194.538" y1="289.532" x2="197.824" y2="269.791"/>
	
		<line fill="none" stroke="#FBB03B" stroke-width="2" stroke-miterlimit="10" x1="101.239" y1="259.954" x2="104.201" y2="241.633"/>
	
		<line fill="none" stroke="#FBB03B" stroke-width="2" stroke-miterlimit="10" x1="120.783" y1="265.922" x2="123.745" y2="247.601"/>
	
		<line fill="none" stroke="#FBB03B" stroke-width="2" stroke-miterlimit="10" x1="139.617" y1="271.729" x2="142.579" y2="253.407"/>
	
		<line fill="none" stroke="#FBB03B" stroke-width="2" stroke-miterlimit="10" x1="158.451" y1="277.534" x2="161.414" y2="259.214"/>
	<line fill="none" stroke="#FBB03B" stroke-width="2" stroke-miterlimit="10" x1="177.285" y1="283.34" x2="180.392" y2="264.388"/>
	<line fill="none" stroke="#FBB03B" stroke-width="2" stroke-miterlimit="10" x1="194.7" y1="288.821" x2="197.987" y2="269.081"/>
	<g>
		<path fill="none" stroke="#FBB03B" stroke-width="3" stroke-miterlimit="10" d="M80.327,253.548
			c-0.001,0.005,0.003,0.011,0.008,0.013l128.882,39.84c0.006,0.002,0.011-0.001,0.012-0.007l4.382-19.139
			c0.001-0.006-0.002-0.011-0.008-0.013L82.826,235.337c-0.005-0.002-0.01,0.002-0.011,0.007L80.327,253.548z"/>
	</g>
</g>
<path fill="#8C6239" stroke="#FBB03B" stroke-width="2" stroke-miterlimit="10" d="M93.889,340.034
	c0.266,0.854-0.52,1.858-1.756,2.244l-0.298,0.093c-1.236,0.386-2.453,0.006-2.719-0.848L41.143,187.664
	c-0.266-0.854,0.52-1.857,1.756-2.242l0.298-0.094c1.236-0.385,2.453-0.006,2.719,0.848L93.889,340.034z"/>
<path fill="#8C6239" stroke="#FBB03B" stroke-width="2" stroke-miterlimit="10" d="M75.888,259.591
	c0.333,1.066-0.399,2.243-1.635,2.63l-0.298,0.092c-1.236,0.387-2.507-0.167-2.84-1.233l-59.958-192.3
	c-0.333-1.067,0.399-2.244,1.635-2.629l0.298-0.093c1.236-0.385,2.507,0.167,2.84,1.234L75.888,259.591z"/>
<path fill="#333333" stroke="#4D4D4D" stroke-width="4" stroke-miterlimit="10" d="M187.5,168.325
	c-9.903,13.602-13.172,45.537,0.109,64.097S201,251.719,201,251.719h112.063c0,0-32.375-58.938-11.281-79.418
	s21.094-20.854,21.094-20.854s-116.18,13.264-109.262,3.019c6.918-10.246,6.918-10.34,6.918-10.34S193.185,160.518,187.5,168.325z"
	/>
<path fill="#333333" stroke="#666666" stroke-width="3" stroke-miterlimit="10" d="M405.146,150.625
	c-7.217,8.976-9.601,29.331,0.08,41.58c9.681,12.248,9.76,12.014,9.76,12.014h81.678c0,0-23.597-38.175-8.223-51.69
	c15.374-13.515,15.374-13.402,15.374-13.402s-84.678,8.934-79.636,2.172s5.042-6.733,5.042-6.733S409.29,145.473,405.146,150.625z"
	/>
<path fill="#333333" stroke="#666666" stroke-width="3" stroke-miterlimit="10" d="M198.746,90.917
	c-5.841,6.195-7.769,20.4,0.064,28.854c7.834,8.454,7.898,8.448,7.898,8.448h66.097c0,0-19.096-26.504-6.653-35.833
	c12.441-9.329,12.441-9.329,12.441-9.329s-68.525,6.127-64.445,1.46c4.081-4.667,4.081-4.667,4.081-4.667
	S202.099,87.361,198.746,90.917z"/>
<polygon fill="#333333" stroke="#8C6239" stroke-miterlimit="10" points="236.11,8.391 304.427,25.781 238.798,58.594 "/>
<polygon fill="#333333" stroke="#8C6239" stroke-miterlimit="10" points="15.93,67.291 64.736,75.781 28.525,107.688 "/>
<rect x="220.563" y="394.219" fill="none" stroke="#754C24" stroke-miterlimit="10" width="93" height="7"/>
<rect x="193.563" y="408.219" fill="none" stroke="#754C24" stroke-miterlimit="10" width="93" height="7"/>
<rect x="247.563" y="401.219" fill="none" stroke="#754C24" stroke-miterlimit="10" width="93" height="7"/>
<rect x="154.563" y="401.219" fill="none" stroke="#754C24" stroke-miterlimit="10" width="93" height="7"/>
<rect x="148.563" y="415.219" fill="none" stroke="#754C24" stroke-miterlimit="10" width="84" height="7"/>
<rect x="139.563" y="408.219" fill="none" stroke="#754C24" stroke-miterlimit="10" width="54" height="7"/>
<rect x="226.563" y="429.219" fill="none" stroke="#754C24" stroke-miterlimit="10" width="93" height="7"/>
<rect x="187.563" y="422.219" fill="none" stroke="#754C24" stroke-miterlimit="10" width="93" height="7"/>
<rect x="340.563" y="401.219" fill="none" stroke="#754C24" stroke-miterlimit="10" width="93" height="7"/>
<rect x="325.563" y="415.219" fill="none" stroke="#754C24" stroke-miterlimit="10" width="93" height="7"/>
<rect x="373.563" y="422.219" fill="none" stroke="#754C24" stroke-miterlimit="10" width="57" height="7"/>
<rect x="232.563" y="415.219" fill="none" stroke="#754C24" stroke-miterlimit="10" width="93" height="7"/>
<rect x="103.563" y="296.219" fill="none" stroke="#754C24" stroke-miterlimit="10" width="93" height="7"/>
<rect x="86.563" y="289.219" fill="none" stroke="#754C24" stroke-miterlimit="10" width="70" height="7"/>
<rect x="84.563" y="282.219" fill="none" stroke="#754C24" stroke-miterlimit="10" width="47" height="7"/>
<rect x="95.563" y="275.219" fill="none" stroke="#754C24" stroke-miterlimit="10" width="35" height="7"/>
<rect x="81.563" y="275.219" fill="none" stroke="#754C24" stroke-miterlimit="10" width="14" height="7"/>
<rect x="87.563" y="296.219" fill="none" stroke="#754C24" stroke-miterlimit="10" width="16" height="7"/>
<rect x="92.563" y="310.219" fill="none" stroke="#754C24" stroke-miterlimit="10" width="77" height="7"/>
<rect x="130.563" y="303.219" fill="none" stroke="#754C24" stroke-miterlimit="10" width="91" height="7"/>
<rect x="90.563" y="303.219" fill="none" stroke="#754C24" stroke-miterlimit="10" width="40" height="7"/>
<rect x="115.563" y="317.219" fill="none" stroke="#754C24" stroke-miterlimit="10" width="93" height="7"/>
<rect x="208.563" y="317.219" fill="none" stroke="#754C24" stroke-miterlimit="10" width="30" height="7"/>
<rect x="262.563" y="366.219" fill="none" stroke="#754C24" stroke-miterlimit="10" width="93" height="7"/>
<rect x="235.563" y="380.219" fill="none" stroke="#754C24" stroke-miterlimit="10" width="93" height="7"/>
<rect x="289.563" y="373.219" fill="none" stroke="#754C24" stroke-miterlimit="10" width="93" height="7"/>
<rect x="196.563" y="373.219" fill="none" stroke="#754C24" stroke-miterlimit="10" width="93" height="7"/>
<rect x="181.563" y="387.219" fill="none" stroke="#754C24" stroke-miterlimit="10" width="93" height="7"/>
<rect x="142.563" y="380.219" fill="none" stroke="#754C24" stroke-miterlimit="10" width="93" height="7"/>
<rect x="127.563" y="394.219" fill="none" stroke="#754C24" stroke-miterlimit="10" width="93" height="7"/>
<rect x="119.563" y="387.219" fill="none" stroke="#754C24" stroke-miterlimit="10" width="62" height="7"/>
<rect x="250.563" y="345.219" fill="none" stroke="#754C24" stroke-miterlimit="10" width="93" height="7"/>
<rect x="223.563" y="359.219" fill="none" stroke="#754C24" stroke-miterlimit="10" width="93" height="7"/>
<rect x="184.563" y="352.219" fill="none" stroke="#754C24" stroke-miterlimit="10" width="93" height="7"/>
<rect x="157.563" y="345.219" fill="none" stroke="#754C24" stroke-miterlimit="10" width="93" height="7"/>
<rect x="122.563" y="338.219" fill="none" stroke="#754C24" stroke-miterlimit="10" width="93" height="7"/>
<rect x="102.563" y="345.219" fill="none" stroke="#754C24" stroke-miterlimit="10" width="55" height="7"/>
<rect x="104.563" y="352.219" fill="none" stroke="#754C24" stroke-miterlimit="10" width="80" height="7"/>
<rect x="169.563" y="366.219" fill="none" stroke="#754C24" stroke-miterlimit="10" width="93" height="7"/>
<rect x="142.563" y="359.219" fill="none" stroke="#754C24" stroke-miterlimit="10" width="93" height="7"/>
<rect x="110.563" y="373.219" fill="none" stroke="#754C24" stroke-miterlimit="10" width="86" height="7"/>
<rect x="107.563" y="366.219" fill="none" stroke="#754C24" stroke-miterlimit="10" width="62" height="7"/>
<rect x="184.563" y="331.219" fill="none" stroke="#754C24" stroke-miterlimit="10" width="93" height="7"/>
<rect x="277.563" y="331.219" fill="none" stroke="#754C24" stroke-miterlimit="10" width="93" height="7"/>
<rect x="145.563" y="324.219" fill="none" stroke="#754C24" stroke-miterlimit="10" width="93" height="7"/>
<rect x="98.563" y="331.219" fill="none" stroke="#754C24" stroke-miterlimit="10" width="86" height="7"/>
<rect x="96.563" y="324.219" fill="none" stroke="#754C24" stroke-miterlimit="10" width="49" height="7"/>
<rect x="274.563" y="387.219" fill="none" stroke="#754C24" stroke-miterlimit="10" width="93" height="7"/>
<rect x="328.563" y="380.219" fill="none" stroke="#754C24" stroke-miterlimit="10" width="93" height="7"/>
<rect x="358.563" y="296.219" fill="none" stroke="#754C24" stroke-miterlimit="10" width="51" height="7"/>
<rect x="345.563" y="310.219" fill="none" stroke="#754C24" stroke-miterlimit="10" width="37" height="7"/>
<rect x="353.563" y="303.219" fill="none" stroke="#754C24" stroke-miterlimit="10" width="83" height="7"/>
<rect x="328.563" y="317.219" fill="none" stroke="#754C24" stroke-miterlimit="10" width="93" height="7"/>
<rect x="382.563" y="310.219" fill="none" stroke="#754C24" stroke-miterlimit="10" width="93" height="7"/>
<rect x="313.563" y="394.219" fill="none" stroke="#754C24" stroke-miterlimit="10" width="93" height="7"/>
<rect x="367.563" y="387.219" fill="none" stroke="#754C24" stroke-miterlimit="10" width="93" height="7"/>
<rect x="406.563" y="394.219" fill="none" stroke="#754C24" stroke-miterlimit="10" width="60" height="7"/>
<rect x="421.563" y="380.219" fill="none" stroke="#754C24" stroke-miterlimit="10" width="54" height="7"/>
<rect x="382.563" y="373.219" fill="none" stroke="#754C24" stroke-miterlimit="10" width="93" height="7"/>
<rect x="331.563" y="345.219" fill="none" stroke="#754C24" stroke-miterlimit="10" width="93" height="7"/>
<rect x="370.563" y="352.219" fill="none" stroke="#754C24" stroke-miterlimit="10" width="93" height="7"/>
<rect x="424.563" y="345.219" fill="none" stroke="#754C24" stroke-miterlimit="10" width="62" height="7"/>
<rect x="316.563" y="359.219" fill="none" stroke="#754C24" stroke-miterlimit="10" width="93" height="7"/>
<rect x="355.563" y="366.219" fill="none" stroke="#754C24" stroke-miterlimit="10" width="93" height="7"/>
<rect x="372.563" y="296.219" fill="none" stroke="#754C24" stroke-miterlimit="10" width="93" height="7"/>
<rect x="426.563" y="289.219" fill="none" stroke="#754C24" stroke-miterlimit="10" width="71" height="7"/>
<rect x="465.563" y="296.219" fill="none" stroke="#754C24" stroke-miterlimit="10" width="32" height="7"/>
<rect x="409.563" y="359.219" fill="none" stroke="#754C24" stroke-miterlimit="10" width="72" height="7"/>
<rect x="421.563" y="317.219" fill="none" stroke="#754C24" stroke-miterlimit="10" width="70" height="7"/>
<rect x="448.563" y="303.219" fill="none" stroke="#754C24" stroke-miterlimit="10" width="47" height="7"/>
<rect x="346.563" y="324.219" fill="none" stroke="#754C24" stroke-miterlimit="10" width="93" height="7"/>
<rect x="385.563" y="331.219" fill="none" stroke="#754C24" stroke-miterlimit="10" width="93" height="7"/>
<rect x="331.563" y="338.219" fill="none" stroke="#754C24" stroke-miterlimit="10" width="93" height="7"/>
<rect x="424.563" y="338.219" fill="none" stroke="#754C24" stroke-miterlimit="10" width="62" height="7"/>
<rect x="439.563" y="324.219" fill="none" stroke="#754C24" stroke-miterlimit="10" width="51" height="7"/>
<rect x="286.563" y="408.219" fill="none" stroke="#754C24" stroke-miterlimit="10" width="93" height="7"/>
<rect x="280.563" y="422.219" fill="none" stroke="#754C24" stroke-miterlimit="10" width="93" height="7"/>
<rect x="265.563" y="436.219" fill="none" stroke="#754C24" stroke-miterlimit="10" width="93" height="7"/>
<rect x="319.563" y="429.219" fill="none" stroke="#754C24" stroke-miterlimit="10" width="93" height="7"/>
<rect x="379.563" y="408.219" fill="none" stroke="#754C24" stroke-miterlimit="10" width="73" height="7"/>
<rect x="402.563" y="275.219" fill="none" stroke="#754C24" stroke-miterlimit="10" width="93" height="7"/>
<rect x="441.563" y="282.219" fill="none" stroke="#754C24" stroke-miterlimit="10" width="56" height="7"/>
<rect x="433.563" y="401.219" fill="none" stroke="#754C24" stroke-miterlimit="10" width="27" height="7"/>
<ellipse fill="#4D4D4D" stroke="#FBB03B" stroke-width="6" stroke-miterlimit="10" cx="262.888" cy="354.055" rx="10.237" ry="9.952"/>
<ellipse fill="#4D4D4D" stroke="#FBB03B" stroke-width="6" stroke-miterlimit="10" cx="294.19" cy="352.599" rx="10.237" ry="9.952"/>
<ellipse fill="#4D4D4D" stroke="#FBB03B" stroke-width="6" stroke-miterlimit="10" cx="325.492" cy="346.774" rx="10.236" ry="9.953"/>
<ellipse fill="#4D4D4D" stroke="#FBB03B" stroke-width="6" stroke-miterlimit="10" cx="356.066" cy="336.583" rx="10.236" ry="9.953"/>
<g>
	<path fill="none" stroke="#FBB03B" stroke-width="3" stroke-miterlimit="10" d="M82.628,263.028
		c-3.17-0.915-4.989,0.922-4.042,4.083c0,0,17.151,57.224,27.396,93.74c8.841,31.515,35.185,61.877,77.649,71.583
		c67.556,15.44,253.299,35.309,290.577-50.351c15.694-36.063,16.38-62.483,26.691-111.014l-129.896,8.118
		c-3.294,0.206-5.494,3.028-4.892,6.272c0,0,3.369,18.112-22.895,29.416c-15.047,6.477-106.809,25.349-107.416,0.646
		C235.597,307.189,82.628,263.028,82.628,263.028z"/>
</g>
<g>
	<g>
		<path fill="#FFFFFF" d="M409.382,308.97c0.161,2.745-1.954,5.123-4.699,5.283l-14,0.819c-2.745,0.16-5.122-1.954-5.283-4.699
			l-0.818-13.999c-0.161-2.745,1.954-5.123,4.699-5.283l14-0.819c2.745-0.16,5.122,1.954,5.283,4.699L409.382,308.97z"/>
		<path fill="none" stroke="#FBB03B" stroke-width="6" stroke-miterlimit="10" d="M409.382,308.97
			c0.161,2.745-1.954,5.123-4.699,5.283l-14,0.819c-2.745,0.16-5.122-1.954-5.283-4.699l-0.818-13.999
			c-0.161-2.745,1.954-5.123,4.699-5.283l14-0.819c2.745-0.16,5.122,1.954,5.283,4.699L409.382,308.97z"/>
	</g>
	<g>
		<path fill="#FFFFFF" d="M444.324,305.33c0.16,2.745-1.954,5.123-4.699,5.283l-14,0.819c-2.745,0.16-5.123-1.954-5.283-4.699
			l-0.818-14c-0.16-2.745,1.954-5.122,4.699-5.283l13.999-0.818c2.745-0.161,5.123,1.954,5.283,4.699L444.324,305.33z"/>
		<path fill="none" stroke="#FBB03B" stroke-width="6" stroke-miterlimit="10" d="M444.324,305.33
			c0.16,2.745-1.954,5.123-4.699,5.283l-14,0.819c-2.745,0.16-5.123-1.954-5.283-4.699l-0.818-14
			c-0.16-2.745,1.954-5.122,4.699-5.283l13.999-0.818c2.745-0.161,5.123,1.954,5.283,4.699L444.324,305.33z"/>
	</g>
	<g>
		<path fill="#FFFFFF" d="M479.266,303.146c0.16,2.745-1.954,5.123-4.699,5.283l-13.999,0.819c-2.745,0.16-5.123-1.954-5.283-4.699
			l-0.819-14c-0.16-2.745,1.954-5.122,4.699-5.283l14-0.818c2.745-0.161,5.123,1.954,5.283,4.699L479.266,303.146z"/>
		<path fill="none" stroke="#FBB03B" stroke-width="6" stroke-miterlimit="10" d="M479.266,303.146
			c0.16,2.745-1.954,5.123-4.699,5.283l-13.999,0.819c-2.745,0.16-5.123-1.954-5.283-4.699l-0.819-14
			c-0.16-2.745,1.954-5.122,4.699-5.283l14-0.818c2.745-0.161,5.123,1.954,5.283,4.699L479.266,303.146z"/>
	</g>
	<g>
		<path fill="#FFFFFF" d="M409.382,308.242c0.161,2.745-1.954,5.123-4.699,5.283l-14,0.819c-2.745,0.16-5.122-1.954-5.283-4.699
			l-0.818-14c-0.161-2.745,1.954-5.122,4.699-5.283l14-0.818c2.745-0.161,5.122,1.954,5.283,4.699L409.382,308.242z"/>
		<path fill="none" stroke="#FBB03B" stroke-width="6" stroke-miterlimit="10" d="M409.382,308.242
			c0.161,2.745-1.954,5.123-4.699,5.283l-14,0.819c-2.745,0.16-5.122-1.954-5.283-4.699l-0.818-14
			c-0.161-2.745,1.954-5.122,4.699-5.283l14-0.818c2.745-0.161,5.122,1.954,5.283,4.699L409.382,308.242z"/>
	</g>
	<g>
		<path fill="#FFFFFF" d="M444.324,304.603c0.16,2.745-1.954,5.123-4.699,5.283l-14,0.819c-2.745,0.16-5.123-1.954-5.283-4.699
			l-0.818-14c-0.16-2.745,1.954-5.123,4.699-5.283l13.999-0.818c2.745-0.16,5.123,1.954,5.283,4.699L444.324,304.603z"/>
		<path fill="none" stroke="#FBB03B" stroke-width="6" stroke-miterlimit="10" d="M444.324,304.603
			c0.16,2.745-1.954,5.123-4.699,5.283l-14,0.819c-2.745,0.16-5.123-1.954-5.283-4.699l-0.818-14
			c-0.16-2.745,1.954-5.123,4.699-5.283l13.999-0.818c2.745-0.16,5.123,1.954,5.283,4.699L444.324,304.603z"/>
	</g>
	<g>
		<path fill="#FFFFFF" d="M479.266,302.418c0.16,2.745-1.954,5.123-4.699,5.283l-13.999,0.819c-2.745,0.16-5.123-1.954-5.283-4.699
			l-0.819-13.999c-0.16-2.745,1.954-5.123,4.699-5.283l14-0.819c2.745-0.16,5.123,1.954,5.283,4.699L479.266,302.418z"/>
		<path fill="none" stroke="#FBB03B" stroke-width="6" stroke-miterlimit="10" d="M479.266,302.418
			c0.16,2.745-1.954,5.123-4.699,5.283l-13.999,0.819c-2.745,0.16-5.123-1.954-5.283-4.699l-0.819-13.999
			c-0.16-2.745,1.954-5.123,4.699-5.283l14-0.819c2.745-0.16,5.123,1.954,5.283,4.699L479.266,302.418z"/>
	</g>
	<g>
		<path fill="#FCEE21" d="M409.382,308.242c0.161,2.745-1.954,5.123-4.699,5.283l-14,0.819c-2.745,0.16-5.122-1.954-5.283-4.699
			l-0.818-14c-0.161-2.745,1.954-5.122,4.699-5.283l14-0.818c2.745-0.161,5.122,1.954,5.283,4.699L409.382,308.242z"/>
		<path fill="none" stroke="#603813" stroke-width="2" stroke-miterlimit="10" d="M409.382,308.242
			c0.161,2.745-1.954,5.123-4.699,5.283l-14,0.819c-2.745,0.16-5.122-1.954-5.283-4.699l-0.818-14
			c-0.161-2.745,1.954-5.122,4.699-5.283l14-0.818c2.745-0.161,5.122,1.954,5.283,4.699L409.382,308.242z"/>
	</g>
	<g>
		<path fill="#FCEE21" d="M444.324,304.603c0.16,2.745-1.954,5.123-4.699,5.283l-14,0.819c-2.745,0.16-5.123-1.954-5.283-4.699
			l-0.818-14c-0.16-2.745,1.954-5.123,4.699-5.283l13.999-0.818c2.745-0.16,5.123,1.954,5.283,4.699L444.324,304.603z"/>
		<path fill="none" stroke="#603813" stroke-width="2" stroke-miterlimit="10" d="M444.324,304.603
			c0.16,2.745-1.954,5.123-4.699,5.283l-14,0.819c-2.745,0.16-5.123-1.954-5.283-4.699l-0.818-14
			c-0.16-2.745,1.954-5.123,4.699-5.283l13.999-0.818c2.745-0.16,5.123,1.954,5.283,4.699L444.324,304.603z"/>
	</g>
	<g>
		<path fill="#FCEE21" d="M479.266,302.418c0.16,2.745-1.954,5.123-4.699,5.283l-13.999,0.819c-2.745,0.16-5.123-1.954-5.283-4.699
			l-0.819-13.999c-0.16-2.745,1.954-5.123,4.699-5.283l14-0.819c2.745-0.16,5.123,1.954,5.283,4.699L479.266,302.418z"/>
		<path fill="none" stroke="#603813" stroke-width="2" stroke-miterlimit="10" d="M479.266,302.418
			c0.16,2.745-1.954,5.123-4.699,5.283l-13.999,0.819c-2.745,0.16-5.123-1.954-5.283-4.699l-0.819-13.999
			c-0.16-2.745,1.954-5.123,4.699-5.283l14-0.819c2.745-0.16,5.123,1.954,5.283,4.699L479.266,302.418z"/>
	</g>
	
		<line fill="#534741" stroke="#603813" stroke-width="2" stroke-miterlimit="10" x1="395.829" y1="289.979" x2="396.981" y2="314.637"/>
	
		<line fill="#FFFFFF" stroke="#603813" stroke-width="2" stroke-miterlimit="10" x1="384.949" y1="302.672" x2="408.896" y2="301.048"/>
	
		<line fill="#534741" stroke="#603813" stroke-width="2" stroke-miterlimit="10" x1="430.829" y1="285.979" x2="431.981" y2="310.637"/>
	
		<line fill="#FFFFFF" stroke="#603813" stroke-width="2" stroke-miterlimit="10" x1="419.949" y1="298.672" x2="443.896" y2="297.048"/>
	
		<line fill="#534741" stroke="#603813" stroke-width="2" stroke-miterlimit="10" x1="465.829" y1="283.979" x2="466.981" y2="308.637"/>
	
		<line fill="#FFFFFF" stroke="#603813" stroke-width="2" stroke-miterlimit="10" x1="454.949" y1="296.672" x2="478.896" y2="295.048"/>
</g>
</svg>
