<?xml version="1.0" encoding="utf-8"?>
<!-- Generator: Adobe Illustrator 16.0.0, SVG Export Plug-In . SVG Version: 6.00 Build 0)  -->
<!DOCTYPE svg PUBLIC "-//W3C//DTD SVG 1.1//EN" "http://www.w3.org/Graphics/SVG/1.1/DTD/svg11.dtd">
<svg version="1.1" id="Layer_1" xmlns="http://www.w3.org/2000/svg" xmlns:xlink="http://www.w3.org/1999/xlink" x="0px" y="0px"
	 width="170.833px" height="94.167px" viewBox="0 0 170.833 94.167" enable-background="new 0 0 170.833 94.167"
	 xml:space="preserve">
<path fill="#FFFFFF" d="M153.515,17.5c-6.179,0-11.263,4.854-11.935,11.097c-4.127-3.871-9.801-6.264-16.065-6.264
	c-7.026,0-13.308,3.01-17.5,7.741c-4.191-4.731-10.474-7.741-17.5-7.741c-0.724,0-1.439,0.035-2.146,0.098
	C83.132,13.432,73.03,7.333,61.424,7.333c-11.672,0-21.825,6.165-27.036,15.249c-1.161-0.162-2.347-0.249-3.555-0.249
	c-13.347,0-24.167,10.261-24.167,22.917s10.82,22.917,24.167,22.917c0.404,0,0.806-0.011,1.206-0.029
	c3.883,11.892,15.57,20.529,29.385,20.529c14.764,0,27.093-9.866,30.068-23.023c2.814-0.112,5.498-0.705,7.959-1.697
	c1.525,5.587,6.861,9.721,13.23,9.721c5.699,0,10.581-3.307,12.638-8.005c0.065,0.001,0.13,0.005,0.195,0.005
	c12.62,0,22.849-9.701,22.849-21.667c0-0.956-0.072-1.896-0.199-2.819c1.612,0.837,3.425,1.319,5.35,1.319
	c6.637,0,12.016-5.597,12.016-12.5S160.151,17.5,153.515,17.5z"/>
</svg>
