<?xml version="1.0" encoding="utf-8"?>
<!-- Generator: Adobe Illustrator 16.0.0, SVG Export Plug-In . SVG Version: 6.00 Build 0)  -->
<!DOCTYPE svg PUBLIC "-//W3C//DTD SVG 1.1//EN" "http://www.w3.org/Graphics/SVG/1.1/DTD/svg11.dtd">
<svg version="1.1" id="Layer_1" xmlns="http://www.w3.org/2000/svg" xmlns:xlink="http://www.w3.org/1999/xlink" x="0px" y="0px"
	 width="500px" height="345.833px" viewBox="0 0 500 345.833" enable-background="new 0 0 500 345.833" xml:space="preserve">
<g>
	<path fill="#3FA9F5" d="M500,254.709v91.124H1v-94.034c53.233-34.617,97.246-84.269,123.297-117.47
		c7.527-11.939,15.99-23.798,25.675-35.085c0-0.092,0.096-0.183,0.096-0.183c37.055-43.361,91.134-79.475,170.699-91.791
		c58.028-8.936,131.669,22.006,131.669,22.006S303.556,73.105,327.067,189.069c18.057,89.347,100.823,93.388,139.477,81.54
		c1.786-0.568,3.668-1.221,5.831-2.076c0.188-0.091,0.47-0.184,0.657-0.275c0.285-0.192,0.834-0.285,1.023-0.376
		C481.388,264.777,488.984,260.074,500,254.709z"/>
	<path fill="#BDDEF2" d="M472.375,268.533c-22.381,12.326-207.39,96.823-247.434-60.479
		C175.418,13.517,452.437,29.277,452.437,29.277S303.556,73.105,327.067,189.069c18.057,89.347,100.823,93.388,139.477,81.54
		C468.33,270.041,470.212,269.388,472.375,268.533z"/>
</g>
</svg>
