<?xml version="1.0" encoding="utf-8"?>
<!-- Generator: Adobe Illustrator 16.0.0, SVG Export Plug-In . SVG Version: 6.00 Build 0)  -->
<!DOCTYPE svg PUBLIC "-//W3C//DTD SVG 1.1//EN" "http://www.w3.org/Graphics/SVG/1.1/DTD/svg11.dtd">
<svg version="1.1" id="Layer_1" xmlns="http://www.w3.org/2000/svg" xmlns:xlink="http://www.w3.org/1999/xlink" x="0px" y="0px"
	 width="500px" height="346.667px" viewBox="0 0 500 346.667" enable-background="new 0 0 500 346.667" xml:space="preserve">
<g>
	<path fill="#2073A5" d="M0,255.411v91.256h501v-94.163c-53.538-34.571-97.803-84.159-124.004-117.318
		c-7.57-11.925-16.082-23.767-25.822-35.039c0-0.093-0.096-0.184-0.096-0.184C313.81,56.658,259.422,20.591,179.4,8.291
		C121.041-0.634,46.979,30.269,46.979,30.269s149.732,43.772,126.086,159.586c-18.16,89.23-101.401,93.267-140.275,81.434
		c-1.797-0.568-3.689-1.22-5.865-2.072c-0.188-0.093-0.473-0.184-0.66-0.275c-0.287-0.193-0.411-0.285-0.601-0.376
		C18.289,265.464,9,260.767,0,255.411z"/>
	<path fill="#1E8EC6" d="M26.924,269.216c22.511,12.31,208.578,96.698,248.852-60.402C325.584,14.528,46.979,30.269,46.979,30.269
		s149.732,43.772,126.086,159.586c-18.16,89.23-101.401,93.267-140.275,81.434C30.992,270.72,29.1,270.069,26.924,269.216z"/>
</g>
</svg>
